<?xml version="1.0" encoding="UTF-8" standalone="no"?><!DOCTYPE svg PUBLIC "-//W3C//DTD SVG 1.1//EN" "http://www.w3.org/Graphics/SVG/1.1/DTD/svg11.dtd"><svg width="100%" height="100%" viewBox="0 0 182 75" version="1.1" xmlns="http://www.w3.org/2000/svg" xmlns:xlink="http://www.w3.org/1999/xlink" xml:space="preserve" xmlns:serif="http://www.serif.com/" style="fill-rule:evenodd;clip-rule:evenodd;stroke-linejoin:round;stroke-miterlimit:2;"><g><path d="M127.893,0.878l-0,28.658l-31.517,-28.618l-0,33.54l2.022,0l-0,-28.658l31.517,28.618l-0,-33.54l-2.022,-0Z" style="fill-rule:nonzero;"/><path d="M170.673,23.742c-0.391,0.924 -0.872,1.81 -1.434,2.642c-0.558,0.825 -1.196,1.598 -1.9,2.303c-0.705,0.705 -1.478,1.342 -2.304,1.9c-0.831,0.562 -1.716,1.043 -2.641,1.434c-0.939,0.398 -1.917,0.702 -2.916,0.906c-1.031,0.211 -2.084,0.316 -3.137,0.316c-1.053,0 -2.107,-0.105 -3.138,-0.316c-0.999,-0.204 -1.978,-0.508 -2.917,-0.906c-0.924,-0.391 -1.81,-0.872 -2.641,-1.434c-0.827,-0.558 -1.599,-1.195 -2.304,-1.9c-0.705,-0.705 -1.342,-1.478 -1.901,-2.304c-0.561,-0.831 -1.043,-1.717 -1.434,-2.641c-0.397,-0.939 -0.701,-1.918 -0.906,-2.917c-0.21,-1.031 -0.315,-2.084 -0.315,-3.137c-0,-1.053 0.105,-2.106 0.315,-3.138c0.205,-0.999 0.509,-1.977 0.906,-2.917c0.391,-0.924 0.873,-1.81 1.434,-2.641c0.559,-0.826 1.196,-1.598 1.901,-2.303c0.705,-0.705 1.477,-1.343 2.304,-1.901c0.831,-0.562 1.717,-1.043 2.641,-1.434c0.939,-0.397 1.918,-0.701 2.917,-0.906c1.031,-0.211 2.084,-0.315 3.138,-0.315c1.052,-0 2.106,0.104 3.137,0.315c0.999,0.205 1.977,0.509 2.916,0.906c0.925,0.391 1.81,0.872 2.641,1.434c0.827,0.558 1.599,1.196 2.304,1.901c0.704,0.704 1.342,1.477 1.9,2.303c0.562,0.831 1.043,1.717 1.434,2.641c0.397,0.94 0.701,1.918 0.905,2.917c0.211,1.032 0.316,2.085 0.316,3.137c0,1.054 -0.105,2.107 -0.316,3.138c-0.204,0.999 -0.508,1.978 -0.905,2.917m-14.332,-23.742c-9.77,0 -17.689,7.919 -17.689,17.688c-0,9.768 7.919,17.688 17.689,17.688c9.768,-0 17.686,-7.92 17.686,-17.688c-0,-9.769 -7.918,-17.688 -17.686,-17.688" style="fill-rule:nonzero;"/><path d="M9.32,27.263l-2.198,-0c0.068,0.255 0.149,0.506 0.244,0.752c0.216,0.561 0.501,1.095 0.84,1.59c0.334,0.489 0.723,0.941 1.148,1.354c0.406,0.394 0.847,0.753 1.31,1.078c0.496,0.348 1.017,0.657 1.556,0.935c0.552,0.284 1.121,0.534 1.701,0.755c0.595,0.226 1.201,0.422 1.815,0.591c1.276,0.353 2.583,0.593 3.899,0.743c1.21,0.139 2.428,0.203 3.646,0.195c1.365,-0.009 2.731,-0.107 4.083,-0.299c0.839,-0.12 1.673,-0.276 2.497,-0.473c0.639,-0.154 1.273,-0.333 1.897,-0.54c0.609,-0.202 1.209,-0.431 1.795,-0.692c0.569,-0.253 1.124,-0.536 1.66,-0.854c0.623,-0.37 1.219,-0.787 1.77,-1.257c0.243,-0.207 0.477,-0.425 0.7,-0.653c0.228,-0.231 0.444,-0.473 0.648,-0.725c0.207,-0.257 0.402,-0.523 0.582,-0.798c0.183,-0.28 0.351,-0.568 0.505,-0.864c0.154,-0.297 0.293,-0.602 0.418,-0.913c0.123,-0.308 0.232,-0.623 0.328,-0.941c0.188,-0.63 0.324,-1.275 0.42,-1.925c0.093,-0.631 0.15,-1.268 0.185,-1.906c0.034,-0.614 0.048,-1.229 0.054,-1.844c0.003,-0.301 0.005,-0.601 0.006,-0.901c0.001,-0.502 0.001,-1.004 0.001,-1.507l0,-17.246l-17.272,-0l-0,2.093l15.179,-0l-0,15.153c-0,4.379 0.438,9.139 -4.126,12.143c-7.052,4.64 -22.721,3.625 -25.291,-3.044" style="fill-rule:nonzero;"/><path d="M50.345,32.344l17.189,-27.685l17.191,27.685l-34.38,0Zm17.189,-31.518l-20.825,33.54l41.652,-0l-20.827,-33.54Z" style="fill-rule:nonzero;"/></g><rect x="0" y="45.389" width="181.192" height="1.812"/><g><path d="M17.315,60.1l0,2.607c-1.272,-1.064 -2.588,-1.596 -3.948,-1.596c-1.499,-0 -2.761,0.538 -3.788,1.615c-1.033,1.071 -1.549,2.381 -1.549,3.93c0,1.53 0.516,2.821 1.549,3.873c1.033,1.051 2.299,1.577 3.797,1.577c0.775,0 1.433,-0.126 1.975,-0.378c0.302,-0.126 0.615,-0.296 0.94,-0.51c0.324,-0.214 0.666,-0.472 1.024,-0.774l0,2.654c-1.259,0.712 -2.581,1.067 -3.967,1.067c-2.084,0 -3.863,-0.727 -5.337,-2.182c-1.467,-1.467 -2.201,-3.237 -2.201,-5.308c0,-1.858 0.614,-3.514 1.842,-4.969c1.512,-1.782 3.467,-2.673 5.866,-2.673c1.31,-0 2.576,0.356 3.797,1.067Z" style="fill-rule:nonzero;"/><path d="M32.771,67.685l4.515,6.216l-2.692,-0l-4.166,-5.97l-0.396,-0l-0,5.97l-2.201,-0l-0,-14.585l2.579,0c1.927,0 3.318,0.362 4.175,1.087c0.944,0.806 1.417,1.87 1.417,3.192c-0,1.033 -0.296,1.921 -0.888,2.664c-0.592,0.743 -1.373,1.219 -2.343,1.426Zm-2.739,-1.672l0.699,0c2.084,0 3.126,-0.796 3.126,-2.389c0,-1.493 -1.014,-2.239 -3.041,-2.239l-0.784,-0l-0,4.628Z" style="fill-rule:nonzero;"/><path d="M55.264,61.385l-5.847,-0l-0,3.504l5.677,0l-0,2.069l-5.677,0l-0,4.874l5.847,0l-0,2.069l-8.048,-0l-0,-14.585l8.048,0l-0,2.069Z" style="fill-rule:nonzero;"/><path d="M74.46,70.359l-6.244,-0l-1.624,3.542l-2.371,-0l7.216,-15.501l6.962,15.501l-2.409,-0l-1.53,-3.542Zm-0.897,-2.069l-2.163,-4.959l-2.267,4.959l4.43,-0Z" style="fill-rule:nonzero;"/><path d="M91.172,61.385l-0,12.516l-2.201,-0l0,-12.516l-3.353,-0l-0,-2.069l8.898,0l-0,2.069l-3.344,-0Z" style="fill-rule:nonzero;"/><rect x="104.219" y="59.316" width="2.201" height="14.585" style="fill-rule:nonzero;"/><path d="M116.935,66.542c0,-2.053 0.753,-3.816 2.258,-5.289c1.498,-1.474 3.299,-2.211 5.403,-2.211c2.078,0 3.86,0.743 5.346,2.23c1.493,1.486 2.239,3.271 2.239,5.355c-0,2.097 -0.749,3.876 -2.248,5.337c-1.505,1.468 -3.322,2.201 -5.451,2.201c-1.882,0 -3.573,-0.651 -5.072,-1.955c-1.65,-1.442 -2.475,-3.331 -2.475,-5.668Zm2.22,0.029c-0,1.612 0.541,2.937 1.625,3.977c1.076,1.039 2.32,1.558 3.731,1.558c1.53,0 2.821,-0.529 3.873,-1.587c1.051,-1.07 1.577,-2.374 1.577,-3.91c0,-1.556 -0.519,-2.859 -1.558,-3.911c-1.033,-1.058 -2.312,-1.587 -3.836,-1.587c-1.517,-0 -2.799,0.529 -3.844,1.587c-1.045,1.045 -1.568,2.336 -1.568,3.873Z" style="fill-rule:nonzero;"/><path d="M142.687,73.901l-0,-15.577l10.636,11.128l0,-10.136l2.201,0l-0,15.473l-10.636,-11.099l-0,10.211l-2.201,-0Z" style="fill-rule:nonzero;"/><path d="M175.004,61.489l-1.786,1.058c-0.334,-0.58 -0.652,-0.957 -0.954,-1.134c-0.315,-0.201 -0.721,-0.302 -1.218,-0.302c-0.611,-0 -1.118,0.173 -1.521,0.519c-0.403,0.341 -0.605,0.769 -0.605,1.285c0,0.712 0.529,1.285 1.587,1.719l1.455,0.595c1.184,0.479 2.05,1.063 2.598,1.753c0.547,0.689 0.821,1.535 0.821,2.536c0,1.341 -0.447,2.45 -1.341,3.325c-0.901,0.882 -2.018,1.322 -3.353,1.322c-1.266,0 -2.311,-0.374 -3.136,-1.124c-0.813,-0.749 -1.32,-1.804 -1.521,-3.164l2.229,-0.491c0.101,0.856 0.277,1.448 0.529,1.776c0.453,0.629 1.115,0.944 1.984,0.944c0.686,0 1.256,-0.23 1.709,-0.689c0.454,-0.46 0.681,-1.043 0.681,-1.748c-0,-0.283 -0.04,-0.543 -0.119,-0.779c-0.078,-0.236 -0.201,-0.454 -0.368,-0.652c-0.167,-0.198 -0.382,-0.384 -0.647,-0.557c-0.264,-0.174 -0.579,-0.339 -0.945,-0.496l-1.407,-0.586c-1.996,-0.844 -2.994,-2.078 -2.994,-3.703c-0,-1.095 0.418,-2.012 1.256,-2.749c0.837,-0.743 1.88,-1.114 3.127,-1.114c1.681,-0 2.994,0.818 3.939,2.456Z" style="fill-rule:nonzero;"/></g></svg>